<svg width="296" height="220" viewBox="0 0 296 220" fill="none" xmlns="http://www.w3.org/2000/svg">
<path d="M295.249 193.329H0V193.477H295.249V193.329Z" fill="#E6E6E6"/>
<path d="M276.59 198.538H265.506V198.685H276.59V198.538Z" fill="#E6E6E6"/>
<path d="M225.429 202.588H220.298V202.736H225.429V202.588Z" fill="#E6E6E6"/>
<path d="M176.748 200.551H165.316V200.699H176.748V200.551Z" fill="#E6E6E6"/>
<path d="M73.2927 200.474H47.7891V200.622H73.2927V200.474Z" fill="#E6E6E6"/>
<path d="M42.5338 200.474H38.7959V200.622H42.5338V200.474Z" fill="#E6E6E6"/>
<path d="M167.099 196.979H111.781V197.126H167.099V196.979Z" fill="#E6E6E6"/>
<path d="M139.948 166.993H25.9283C25.0351 166.992 24.179 166.636 23.548 166.003C22.9169 165.371 22.5625 164.515 22.5625 163.621V3.34222C22.5703 2.45413 22.9281 1.60496 23.5583 0.979176C24.1886 0.353389 25.0402 0.00152135 25.9283 0H139.948C140.842 0 141.7 0.355237 142.332 0.987563C142.964 1.61989 143.32 2.47751 143.32 3.37175V163.621C143.32 164.516 142.964 165.373 142.332 166.006C141.7 166.638 140.842 166.993 139.948 166.993ZM25.9283 0.1181C25.0743 0.119664 24.2557 0.460037 23.6524 1.06451C23.049 1.66898 22.7101 2.48816 22.7101 3.34222V163.621C22.7101 164.475 23.049 165.295 23.6524 165.899C24.2557 166.504 25.0743 166.844 25.9283 166.845H139.948C140.802 166.844 141.622 166.504 142.226 165.899C142.83 165.295 143.17 164.476 143.172 163.621V3.34222C143.17 2.48761 142.83 1.66845 142.226 1.06415C141.622 0.459845 140.802 0.119661 139.948 0.1181H25.9283Z" fill="#E6E6E6"/>
<path d="M267.679 166.993H153.654C152.76 166.992 151.904 166.636 151.272 166.004C150.64 165.372 150.284 164.515 150.282 163.621V3.34222C150.292 2.45359 150.651 1.60443 151.282 0.978807C151.913 0.353183 152.765 0.00150476 153.654 0H267.679C268.566 0.00307325 269.417 0.355628 270.046 0.981249C270.674 1.60687 271.031 2.45515 271.039 3.34222V163.621C271.039 164.514 270.686 165.369 270.056 166.001C269.426 166.633 268.572 166.99 267.679 166.993ZM153.654 0.1181C152.799 0.119661 151.98 0.459845 151.376 1.06415C150.772 1.66845 150.431 2.48761 150.43 3.34222V163.621C150.431 164.476 150.772 165.295 151.376 165.899C151.98 166.504 152.799 166.844 153.654 166.845H267.679C268.534 166.844 269.353 166.504 269.957 165.899C270.562 165.295 270.902 164.476 270.903 163.621V3.34222C270.902 2.48761 270.562 1.66845 269.957 1.06415C269.353 0.459845 268.534 0.119661 267.679 0.1181H153.654Z" fill="#E6E6E6"/>
<path d="M154.096 11.0305H34.668V96.1391H154.096V11.0305Z" fill="#FAFAFA"/>
<path d="M156.305 11.0305H35.7012V96.1391H156.305V11.0305Z" fill="#F5F5F5"/>
<path d="M153.211 92.6611V14.5027L38.7959 14.5027V92.6611H153.211Z" fill="#FAFAFA"/>
<path d="M59.6289 92.6611L77.7808 14.5026H101.578L83.426 92.6611H59.6289Z" fill="white"/>
<path d="M87.2754 92.6611L105.433 14.5026H116.18L98.0225 92.6611H87.2754Z" fill="white"/>
<path d="M153.211 92.6611V14.5026H152.815V92.6611H153.211Z" fill="#FAFAFA"/>
<path d="M32.3477 10.8888V44.6181H41.2701C41.2701 44.6181 57.2785 34.1603 60.9455 12.6485C61.0344 12.1333 61.0093 11.6048 60.872 11.1004C60.7347 10.5959 60.4885 10.1277 60.1507 9.72859C59.813 9.3295 59.3919 9.00926 58.9171 8.79041C58.4423 8.57155 57.9253 8.4594 57.4025 8.46183H34.7746C34.1309 8.46183 33.5136 8.71753 33.0585 9.17267C32.6034 9.62781 32.3477 10.2451 32.3477 10.8888Z" fill="#E0E0E0"/>
<path d="M32.3477 106.55V47.3403H41.2701C41.2701 47.3403 59.3807 82.2093 61.477 106.55H32.3477Z" fill="#E0E0E0"/>
<path d="M41.0098 44.6181H32.6719C32.1795 44.6181 31.7803 45.0173 31.7803 45.5098V46.4487C31.7803 46.9411 32.1795 47.3403 32.6719 47.3403H41.0098C41.5022 47.3403 41.9014 46.9411 41.9014 46.4487V45.5098C41.9014 45.0173 41.5022 44.6181 41.0098 44.6181Z" fill="#F5F5F5"/>
<path d="M158.844 10.8888V44.6181H149.904C149.904 44.6181 133.872 34.1604 130.229 12.6485C130.141 12.1334 130.167 11.6054 130.304 11.1014C130.442 10.5974 130.688 10.1296 131.026 9.73074C131.364 9.3319 131.784 9.01167 132.258 8.79249C132.733 8.5733 133.249 8.46046 133.772 8.46187H156.423C157.065 8.46498 157.68 8.72186 158.134 9.1765C158.587 9.63114 158.843 10.2466 158.844 10.8888Z" fill="#E0E0E0"/>
<path d="M158.844 106.55V47.3403H149.904C149.904 47.3403 131.799 82.2093 129.697 106.55H158.844Z" fill="#E0E0E0"/>
<path d="M150.164 47.3344H158.502C158.994 47.3344 159.394 46.9352 159.394 46.4428V45.5039C159.394 45.0114 158.994 44.6122 158.502 44.6122H150.164C149.672 44.6122 149.272 45.0114 149.272 45.5039V46.4428C149.272 46.9352 149.672 47.3344 150.164 47.3344Z" fill="#F5F5F5"/>
<path d="M156.146 117.309H136.523V193.329H156.146V117.309Z" fill="#FAFAFA"/>
<path d="M150.908 193.329H156.145V184.549H145.416L150.908 193.329Z" fill="#F4F8FF"/>
<path d="M62.2678 117.309H42.6455V193.329H62.2678V117.309Z" fill="#E0E0E0"/>
<path d="M156.145 117.309H57.6973V190.306H156.145V117.309Z" fill="#FAFAFA"/>
<path d="M87.2754 104.4C87.2754 111.486 94.1016 117.309 102.451 117.309H109.986C118.33 117.309 125.156 111.498 125.156 104.4H87.2754Z" fill="#EBEBEB"/>
<path d="M82.9064 88.1792H97.0783C97.0783 88.1792 94.616 94.6747 94.616 98.5011C94.616 102.328 105.398 117.309 89.9923 117.309C74.5862 117.309 85.3687 102.322 85.3687 98.5011C85.3687 94.6806 82.9064 88.1792 82.9064 88.1792Z" fill="#E0E0E0"/>
<path d="M152.083 121.755H61.7607V140.161H152.083V121.755Z" fill="#EBEBEB"/>
<path d="M62.935 193.329H57.6973V184.549H68.4325L62.935 193.329Z" fill="#FAFAFA"/>
<path d="M104.146 130.955C104.146 131.504 104.309 132.04 104.614 132.497C104.919 132.953 105.353 133.309 105.86 133.519C106.367 133.729 106.925 133.784 107.463 133.677C108.002 133.57 108.496 133.306 108.884 132.917C109.272 132.529 109.537 132.035 109.644 131.496C109.751 130.958 109.696 130.4 109.486 129.893C109.276 129.386 108.92 128.952 108.464 128.647C108.007 128.342 107.471 128.18 106.922 128.18C106.186 128.18 105.48 128.472 104.959 128.992C104.439 129.513 104.146 130.219 104.146 130.955Z" fill="#FAFAFA"/>
<path d="M152.083 144.607H61.7607V163.013H152.083V144.607Z" fill="#EBEBEB"/>
<path d="M104.146 153.807C104.146 154.356 104.309 154.893 104.614 155.349C104.919 155.806 105.353 156.161 105.86 156.371C106.367 156.581 106.925 156.636 107.463 156.529C108.002 156.422 108.496 156.158 108.884 155.77C109.272 155.382 109.537 154.887 109.644 154.349C109.751 153.81 109.696 153.252 109.486 152.745C109.276 152.238 108.92 151.805 108.464 151.5C108.007 151.195 107.471 151.032 106.922 151.032C106.186 151.032 105.48 151.324 104.959 151.845C104.439 152.365 104.146 153.071 104.146 153.807Z" fill="#FAFAFA"/>
<path d="M152.083 167.454H61.7607V185.86H152.083V167.454Z" fill="#EBEBEB"/>
<path d="M106.922 179.435C108.455 179.435 109.697 178.192 109.697 176.66C109.697 175.127 108.455 173.884 106.922 173.884C105.389 173.884 104.146 175.127 104.146 176.66C104.146 178.192 105.389 179.435 106.922 179.435Z" fill="#FAFAFA"/>
<path d="M218.414 10.0031H174.581V41.205H218.414V10.0031Z" fill="#E0E0E0"/>
<path d="M221.993 10.0031H177.073V41.205H221.993V10.0031Z" fill="#F5F5F5"/>
<path d="M219.128 38.3411V12.8669L179.937 12.8669V38.3411H219.128Z" fill="white"/>
<path d="M212.231 30.9185V20.2836H186.834V30.9185H212.231Z" fill="#F5F5F5"/>
<path d="M253.974 25.6041H227.295V53.5819H253.974V25.6041Z" fill="#E0E0E0"/>
<path d="M257.564 25.6041H229.793V53.5819H257.564V25.6041Z" fill="#F5F5F5"/>
<path d="M254.7 50.718V28.468H232.657V50.718H254.7Z" fill="white"/>
<path d="M239.554 39.593C239.554 38.6105 239.944 37.6682 240.638 36.9729C241.332 36.2776 242.274 35.8862 243.256 35.8846H244.095C245.077 35.8862 246.019 36.2776 246.713 36.9729C247.407 37.6682 247.797 38.6105 247.797 39.593C247.797 40.5749 247.407 41.5167 246.713 42.211C246.018 42.9053 245.077 43.2954 244.095 43.2954H243.286C242.797 43.2993 242.312 43.2064 241.86 43.0221C241.407 42.8378 240.995 42.5657 240.649 42.2215C240.302 41.8773 240.026 41.4678 239.838 41.0167C239.65 40.5656 239.554 40.0817 239.554 39.593Z" fill="#F5F5F5"/>
<path d="M295.25 63.0948H224.803H211.995V79.3749H199.187V95.655H186.379V111.935H173.572V128.215H160.764V144.489H147.956V160.769H135.148V177.049H122.34V193.329H135.148H295.25V63.0948Z" fill="#FAFAFA"/>
<path d="M194.026 177.049H121.022V181.933H194.026V177.049Z" fill="#EBEBEB"/>
<path d="M206.834 160.769H133.831V165.653H206.834V160.769Z" fill="#EBEBEB"/>
<path d="M219.642 144.489H146.639V149.373H219.642V144.489Z" fill="#EBEBEB"/>
<path d="M232.45 128.209H159.446V133.093H232.45V128.209Z" fill="#EBEBEB"/>
<path d="M245.258 111.935H172.255V116.818H245.258V111.935Z" fill="#EBEBEB"/>
<path d="M258.066 95.6549H185.062V100.538H258.066V95.6549Z" fill="#EBEBEB"/>
<path d="M270.874 79.3749H197.87V84.2583H270.874V79.3749Z" fill="#EBEBEB"/>
<path d="M283.681 63.0948H210.678V67.9783H283.681V63.0948Z" fill="#EBEBEB"/>
<path d="M282.442 63.0948V79.3749H269.634V95.655H256.826V111.935H244.018V128.215H231.21V144.489H218.402V160.769H205.594V177.049H192.786V193.329H205.594H295.249V79.3749V63.0948H282.442Z" fill="white"/>
<path d="M147.625 219.996C210.857 219.996 262.117 217.004 262.117 213.312C262.117 209.62 210.857 206.627 147.625 206.627C84.3926 206.627 33.1328 209.62 33.1328 213.312C33.1328 217.004 84.3926 219.996 147.625 219.996Z" fill="#F5F5F5"/>
<path d="M215.621 63.1834C216.447 65.9528 220.711 71.1374 221.047 74.9107C221.384 78.684 214.115 84.7189 214.115 84.7189C214.115 84.7189 208.682 66.5552 212.084 64.4353C215.485 62.3154 215.621 63.1834 215.621 63.1834Z" fill="#263238"/>
<path d="M200.693 82.8056C199.406 83.8803 198.142 84.7838 196.825 85.7109C195.508 86.638 194.15 87.4824 192.768 88.2737C191.382 89.0942 189.953 89.8412 188.487 90.5116C187.743 90.8482 187.005 91.1789 186.237 91.4682C185.86 91.6218 185.476 91.7694 185.086 91.8993L183.905 92.3127C182.895 92.595 181.839 92.6713 180.799 92.5371C179.93 92.4354 179.069 92.2696 178.224 92.041C176.65 91.6053 175.108 91.0567 173.613 90.3994C170.709 89.1316 167.907 87.6411 165.233 85.9412L166.338 83.8862C167.731 84.4767 169.16 85.0672 170.577 85.581C171.995 86.0947 173.424 86.638 174.853 87.0808C176.246 87.5374 177.666 87.9082 179.104 88.191C179.765 88.3201 180.434 88.401 181.106 88.4331C181.607 88.4719 182.111 88.4199 182.594 88.2796C183.941 87.7641 185.258 87.1726 186.539 86.5081C187.194 86.1656 187.844 85.8172 188.481 85.4393C189.119 85.0613 189.769 84.6952 190.4 84.3055C191.67 83.5201 192.91 82.6875 194.138 81.8313C195.367 80.9751 196.589 80.0598 197.681 79.1918L200.693 82.8056Z" fill="#E58A7B"/>
<path d="M203.811 76.5168C202.346 75.3713 196.288 79.1209 194.451 80.6857L195.792 88.7933C195.792 88.7933 204.501 85.144 205.021 82.6521C205.57 80.048 204.903 77.3908 203.811 76.5168Z" fill="#407BFF"/>
<path opacity="0.2" d="M203.811 76.5168C202.346 75.3713 196.288 79.1209 194.451 80.6857L195.792 88.7933C195.792 88.7933 204.501 85.144 205.021 82.6521C205.57 80.048 204.903 77.3908 203.811 76.5168Z" fill="black"/>
<path d="M224.189 101.052L205.801 104.636C196.3 78.9084 198.367 78.0639 198.367 78.0639C199.703 77.3297 201.083 76.6789 202.5 76.1153L202.748 76.0208C203.929 75.5898 204.165 75.5248 205.736 75.0642C208.441 74.4206 210.962 73.8832 214.086 73.4403L214.676 73.3577C215.267 73.2868 215.804 73.2278 216.347 73.1746C216.714 73.1333 217.08 73.1097 217.428 73.086L218.609 73.0211C220.629 72.9207 222.075 72.9502 222.075 72.9502C221.514 89.0177 222.424 93.6295 224.189 101.052Z" fill="#407BFF"/>
<path opacity="0.2" d="M224.189 101.052L205.801 104.636C196.3 78.9084 198.367 78.0639 198.367 78.0639C199.703 77.3297 201.083 76.6789 202.5 76.1153L202.748 76.0208C203.929 75.5898 204.165 75.5248 205.736 75.0642C208.441 74.4206 210.962 73.8832 214.086 73.4403L214.676 73.3577C215.267 73.2868 215.804 73.2278 216.347 73.1746C216.714 73.1333 217.08 73.1097 217.428 73.086L218.609 73.0211C220.629 72.9207 222.075 72.9502 222.075 72.9502C221.514 89.0177 222.424 93.6295 224.189 101.052Z" fill="black"/>
<path d="M209.787 65.0316C208.606 66.9862 212.887 67.8897 215.42 65.8879C217.446 64.2817 216.967 60.5734 215.231 59.7112C213.495 58.8491 209.787 65.0316 209.787 65.0316Z" fill="#407BFF"/>
<path opacity="0.4" d="M209.787 65.0316C208.606 66.9862 212.887 67.8897 215.42 65.8879C217.446 64.2817 216.967 60.5734 215.231 59.7112C213.495 58.8491 209.787 65.0316 209.787 65.0316Z" fill="black"/>
<path d="M227.685 207.543L223.085 207.885L221.402 197.297L226.002 196.955L227.685 207.543Z" fill="#E58A7B"/>
<path d="M260.222 192.745L256.318 195.201L249.368 186.958L253.271 184.495L260.222 192.745Z" fill="#E58A7B"/>
<path d="M221.402 197.297L222.335 203.179L226.87 202.417L226.008 196.961L221.402 197.297Z" fill="#CF6F64"/>
<path d="M253.277 184.501L249.368 186.958L252.25 190.371L256.242 188.015L253.277 184.501Z" fill="#CF6F64"/>
<path d="M206.084 104.636C206.084 104.636 206.019 141.141 209.001 154.888C212.107 169.19 221.242 201.726 221.242 201.726L227.868 200.87C227.868 200.87 222.689 168.003 220.48 153.79C218.077 138.301 219.553 102.015 219.553 102.015L206.084 104.636Z" fill="#407BFF"/>
<path opacity="0.7" d="M206.084 104.636C206.084 104.636 206.019 141.141 209.001 154.888C212.107 169.19 221.242 201.726 221.242 201.726L227.868 200.87C227.868 200.87 222.689 168.003 220.48 153.79C218.077 138.301 219.553 102.015 219.553 102.015L206.084 104.636Z" fill="black"/>
<path opacity="0.5" d="M219.14 118.194L215.893 114.958C216.017 128.983 216.802 135.909 219.501 143.456C219.075 135.478 219.04 126.042 219.14 118.194Z" fill="black"/>
<path d="M210.654 103.692C210.654 103.692 220.557 133.86 225.47 151.239C230.654 169.574 250.531 189.851 250.531 189.851L256.235 186.556C256.235 186.556 242.653 167.306 237.658 150.199C227.501 115.472 231.676 108.114 224.183 101.052L210.654 103.692Z" fill="#407BFF"/>
<path opacity="0.7" d="M210.654 103.692C210.654 103.692 220.557 133.86 225.47 151.239C230.654 169.574 250.531 189.851 250.531 189.851L256.235 186.556C256.235 186.556 242.653 167.306 237.658 150.199C227.501 115.472 231.676 108.114 224.183 101.052L210.654 103.692Z" fill="black"/>
<path d="M202.872 54.379C205.505 55.2589 207.897 61.7957 207.997 64.3703C208.098 66.9448 200.368 70.4937 200.368 70.4937C200.368 70.4937 196.961 62.2268 197.912 56.9123C198.325 54.6034 202.872 54.379 202.872 54.379Z" fill="#263238"/>
<path d="M166.727 84.1048L163.604 80.7035L162.582 84.9669C162.582 84.9669 164.802 86.9274 166.597 86.2542L166.727 84.1048Z" fill="#E58A7B"/>
<path d="M160.439 79.7291L158.254 81.4652L162.582 84.9668L163.604 80.7034L160.439 79.7291Z" fill="#E58A7B"/>
<path d="M255.095 194.321L258.745 190.643C258.808 190.58 258.891 190.541 258.98 190.535C259.069 190.528 259.157 190.554 259.229 190.607L262.553 193.075C262.636 193.14 262.703 193.221 262.752 193.314C262.8 193.407 262.829 193.509 262.835 193.613C262.841 193.717 262.825 193.822 262.787 193.92C262.75 194.017 262.692 194.106 262.618 194.18C261.319 195.437 260.634 195.981 259.028 197.599C258.042 198.597 256.701 200.15 255.337 201.525C253.973 202.901 252.538 201.62 252.975 200.935C254.965 197.823 254.611 196.66 254.747 195.077C254.767 194.791 254.891 194.523 255.095 194.321Z" fill="#263238"/>
<path d="M222.778 207.224H227.963C228.054 207.224 228.142 207.255 228.212 207.314C228.282 207.372 228.33 207.453 228.346 207.543L229.161 211.641C229.18 211.742 229.175 211.845 229.149 211.944C229.123 212.043 229.075 212.135 229.009 212.213C228.943 212.292 228.86 212.355 228.767 212.398C228.674 212.44 228.573 212.462 228.47 212.462C226.658 212.432 225.784 212.326 223.504 212.326C222.105 212.326 219.211 212.467 217.275 212.467C215.338 212.467 215.131 210.554 215.928 210.383C219.471 209.604 220.859 208.535 222.022 207.507C222.233 207.327 222.501 207.227 222.778 207.224Z" fill="#263238"/>
<g style="mix-blend-mode:multiply" opacity="0.27">
<path d="M222.671 82.2624L219.837 83.9512L223.108 96.2513C222.394 92.5253 222.713 88.4331 222.671 82.2624Z" fill="#407BFF"/>
</g>
<path d="M206.562 63.0594C208.576 64.7423 211.499 67.1929 214.942 64.3289C217.894 61.8607 219.961 55.3829 214.664 55.1467C211.895 55.0227 206.562 63.0594 206.562 63.0594Z" fill="#263238"/>
<path d="M211.428 64.2108C211.428 66.998 211.859 72.0231 214.085 73.4521C214.085 73.4521 213.885 76.3219 208.889 77.2904C203.403 78.3592 205.736 75.076 205.736 75.076C208.594 73.7769 208.098 71.5684 207.153 69.5844L211.428 64.2108Z" fill="#E58A7B"/>
<path d="M209.687 66.4016L207.159 69.5844C207.381 70.0444 207.562 70.5225 207.702 71.0134C208.813 70.6237 210.141 69.0648 210.029 67.8424C210.005 67.3451 209.889 66.8566 209.687 66.4016Z" fill="#CF6F64"/>
<path d="M211.694 57.8098C212.285 62.3508 212.645 64.2581 210.826 67.0039C208.092 71.1374 202.388 70.8717 200.445 66.6024C198.674 62.7582 198.012 55.9734 202.051 53.3457C202.939 52.7577 203.963 52.4069 205.025 52.3264C206.087 52.246 207.152 52.4387 208.119 52.8861C209.085 53.3336 209.921 54.0209 210.547 54.8828C211.173 55.7446 211.568 56.7523 211.694 57.8098Z" fill="#E58A7B"/>
<path d="M203.805 49.8558C200.735 52.0347 206.893 52.6784 206.899 55.8376C206.899 57.1426 209.043 61.282 212.09 61.0458L215.042 55.8021C218.148 50.7829 210.808 44.8779 203.805 49.8558Z" fill="#263238"/>
<path d="M203.805 49.8558C198.402 49.5724 196.046 53.8712 196.666 57.7331C200.435 56.7933 204.334 56.484 208.204 56.8178C215.609 57.5737 203.805 49.8558 203.805 49.8558Z" fill="#263238"/>
<path d="M213.171 61.7248C213.245 62.6063 212.967 63.4813 212.397 64.1577C211.635 65.0493 210.625 64.5238 210.271 63.4668C209.97 62.5102 210.005 60.8981 211.033 60.3903C211.26 60.2853 211.509 60.2385 211.759 60.2541C212.009 60.2697 212.25 60.3472 212.462 60.4796C212.675 60.6121 212.85 60.7953 212.974 61.0127C213.098 61.23 213.165 61.4748 213.171 61.7248Z" fill="#E58A7B"/>
<path d="M205.134 60.3903C205.205 60.7564 205.069 61.0871 204.833 61.1343C204.597 61.1816 204.343 60.9217 204.272 60.5438C204.201 60.1659 204.337 59.8411 204.573 59.7939C204.809 59.7466 205.063 60.0242 205.134 60.3903Z" fill="#263238"/>
<path d="M201.006 61.1934C201.077 61.5595 200.941 61.8961 200.705 61.9433C200.469 61.9905 200.215 61.7307 200.144 61.3528C200.073 60.9749 200.209 60.6501 200.445 60.6088C200.681 60.5674 200.935 60.8214 201.006 61.1934Z" fill="#263238"/>
<path d="M200.557 60.6147L199.63 60.538C199.63 60.538 200.214 61.1344 200.557 60.6147Z" fill="#263238"/>
<path d="M202.222 61.6127C202.056 62.5072 201.77 63.3752 201.372 64.1932C201.584 64.2919 201.815 64.343 202.048 64.343C202.282 64.343 202.513 64.2919 202.724 64.1932L202.222 61.6127Z" fill="#DF5753"/>
<path d="M204.265 65.3741C204.24 65.3745 204.215 65.3657 204.196 65.3495C204.176 65.3332 204.163 65.3105 204.159 65.2855C204.156 65.2715 204.157 65.2572 204.16 65.2433C204.163 65.2295 204.169 65.2164 204.177 65.2048C204.185 65.1933 204.196 65.1835 204.208 65.176C204.22 65.1686 204.233 65.1637 204.248 65.1615C204.704 65.0821 205.135 64.8964 205.507 64.6194C205.878 64.3425 206.179 63.982 206.385 63.5672C206.391 63.554 206.399 63.542 206.409 63.5319C206.419 63.5218 206.431 63.5138 206.444 63.5083C206.457 63.5028 206.471 63.5 206.485 63.4999C206.5 63.4999 206.514 63.5027 206.527 63.5081C206.54 63.5135 206.552 63.5215 206.562 63.5316C206.572 63.5416 206.58 63.5536 206.586 63.5668C206.591 63.5799 206.594 63.594 206.594 63.6083C206.594 63.6225 206.591 63.6367 206.586 63.6498C206.37 64.1006 206.048 64.4927 205.648 64.7928C205.248 65.093 204.782 65.2924 204.289 65.3741H204.265Z" fill="#263238"/>
<path d="M206.084 58.8196C206.03 58.8202 205.978 58.8013 205.937 58.7664C205.738 58.5776 205.498 58.4385 205.235 58.3605C204.972 58.2825 204.695 58.2678 204.425 58.3176C204.366 58.3325 204.303 58.3232 204.25 58.2916C204.197 58.26 204.159 58.2089 204.145 58.1494C204.13 58.0898 204.139 58.0269 204.171 57.9743C204.202 57.9217 204.253 57.8837 204.313 57.8689C204.653 57.8019 205.005 57.8167 205.339 57.9122C205.672 58.0077 205.978 58.181 206.232 58.418C206.272 58.4589 206.295 58.5141 206.295 58.5716C206.295 58.629 206.272 58.6842 206.232 58.7251C206.216 58.7504 206.194 58.772 206.168 58.7883C206.143 58.8045 206.114 58.8152 206.084 58.8196Z" fill="#263238"/>
<path d="M198.721 59.6404C198.694 59.6465 198.665 59.6465 198.638 59.6404C198.611 59.6294 198.587 59.6132 198.566 59.5926C198.545 59.572 198.529 59.5475 198.518 59.5206C198.507 59.4936 198.502 59.4647 198.502 59.4356C198.502 59.4065 198.508 59.3778 198.52 59.3511C198.646 59.0281 198.847 58.74 199.107 58.5109C199.367 58.2818 199.678 58.1183 200.014 58.0342C200.042 58.0283 200.072 58.0282 200.1 58.034C200.128 58.0398 200.155 58.0514 200.179 58.068C200.203 58.0846 200.223 58.1058 200.238 58.1305C200.254 58.1552 200.264 58.1827 200.268 58.2114C200.274 58.2394 200.274 58.2682 200.269 58.2963C200.263 58.3244 200.252 58.3511 200.236 58.3748C200.22 58.3985 200.2 58.4187 200.176 58.4343C200.152 58.4498 200.125 58.4604 200.097 58.4653C199.831 58.5377 199.586 58.6709 199.381 58.8544C199.176 59.0378 199.017 59.2665 198.916 59.5223C198.897 59.5576 198.869 59.5872 198.834 59.6079C198.8 59.6287 198.761 59.6399 198.721 59.6404Z" fill="#263238"/>
<path d="M253.726 196.465C253.625 196.462 253.526 196.435 253.437 196.386C253.349 196.336 253.273 196.266 253.218 196.181C253.176 196.131 253.148 196.071 253.137 196.007C253.125 195.943 253.131 195.877 253.153 195.815C253.36 195.26 254.99 194.906 255.173 194.865C255.194 194.861 255.216 194.863 255.236 194.872C255.256 194.88 255.273 194.894 255.285 194.912C255.297 194.929 255.304 194.95 255.304 194.971C255.304 194.992 255.297 195.013 255.285 195.03C254.966 195.556 254.34 196.435 253.755 196.465H253.726ZM254.96 195.136C254.316 195.302 253.466 195.597 253.36 195.892C253.349 195.919 253.347 195.949 253.353 195.977C253.36 196.006 253.374 196.031 253.395 196.052C253.432 196.112 253.484 196.163 253.546 196.197C253.608 196.231 253.679 196.248 253.75 196.246C254.062 196.229 254.505 195.821 254.96 195.136Z" fill="#407BFF"/>
<path d="M254.694 195.136C254.103 195.136 253.365 194.989 253.147 194.67C253.098 194.597 253.076 194.51 253.083 194.423C253.091 194.336 253.128 194.255 253.188 194.191C253.24 194.126 253.305 194.072 253.379 194.033C253.454 193.994 253.536 193.972 253.619 193.967H253.666C254.328 193.967 255.237 194.859 255.273 194.894C255.287 194.907 255.297 194.924 255.302 194.943C255.307 194.962 255.307 194.982 255.302 195C255.297 195.019 255.287 195.035 255.274 195.049C255.26 195.062 255.244 195.072 255.225 195.077C255.051 195.119 254.873 195.139 254.694 195.136ZM253.666 194.186H253.631C253.578 194.187 253.526 194.201 253.479 194.226C253.432 194.25 253.391 194.285 253.359 194.327C253.277 194.439 253.3 194.504 253.33 194.546C253.507 194.817 254.41 194.971 254.966 194.906C254.611 194.545 254.16 194.295 253.666 194.186Z" fill="#407BFF"/>
<path d="M221.083 208.033C220.686 208.068 220.288 207.968 219.955 207.749C219.876 207.688 219.814 207.607 219.775 207.516C219.736 207.424 219.72 207.323 219.731 207.224C219.73 207.164 219.745 207.106 219.774 207.054C219.803 207.003 219.845 206.959 219.896 206.929C220.439 206.61 222.341 207.554 222.553 207.661C222.573 207.671 222.59 207.688 222.6 207.708C222.611 207.728 222.615 207.75 222.612 207.773C222.609 207.795 222.6 207.816 222.585 207.833C222.571 207.85 222.551 207.862 222.53 207.867C222.053 207.967 221.569 208.022 221.083 208.033ZM220.209 207.076C220.139 207.072 220.07 207.086 220.008 207.117C219.988 207.128 219.972 207.144 219.961 207.164C219.951 207.184 219.946 207.207 219.949 207.23C219.943 207.296 219.954 207.363 219.979 207.425C220.005 207.487 220.045 207.541 220.097 207.584C220.392 207.838 221.154 207.879 222.158 207.714C221.548 207.394 220.889 207.179 220.209 207.076Z" fill="#407BFF"/>
<path d="M222.507 207.856H222.465C221.875 207.602 220.735 206.598 220.818 206.084C220.818 205.966 220.924 205.812 221.219 205.783H221.308C222.335 205.783 222.601 207.661 222.613 207.743C222.615 207.763 222.613 207.783 222.606 207.802C222.599 207.82 222.587 207.837 222.572 207.85C222.551 207.858 222.528 207.86 222.507 207.856ZM221.326 205.99H221.261C221.072 205.99 221.06 206.078 221.06 206.102C221.013 206.415 221.792 207.2 222.383 207.549C222.264 207.088 221.963 206.001 221.302 206.001L221.326 205.99Z" fill="#407BFF"/>
<path d="M204.685 59.8116L203.758 59.7289C203.758 59.7289 204.342 60.3313 204.685 59.8116Z" fill="#263238"/>
<path d="M208.741 81.2172C198.862 83.4198 201.915 77.4439 202.506 76.1271L202.754 76.0326C203.935 75.6016 204.171 75.5366 205.742 75.076C208.483 74.3361 211.273 73.7934 214.091 73.4521L214.682 73.3695C215.272 73.2927 215.81 73.2337 216.353 73.1864C216.719 73.1451 217.085 73.1215 217.434 73.0978L218.615 73.027C218.815 73.9482 219.306 78.8729 208.741 81.2172Z" fill="#E58A7B"/>
<path d="M224.248 99.9183L225.4 101.406C225.488 101.519 225.364 101.678 225.152 101.719L205.866 105.475C205.701 105.51 205.547 105.475 205.517 105.351L205.027 103.739C205.027 103.627 205.122 103.503 205.299 103.467L223.923 99.8415C223.979 99.825 224.039 99.8234 224.096 99.8368C224.153 99.8503 224.205 99.8784 224.248 99.9183Z" fill="#26395A"/>
<path d="M222.152 102.487L222.654 102.393C222.754 102.393 222.819 102.31 222.802 102.245L222.152 100.155C222.152 100.09 222.034 100.06 221.934 100.078L221.438 100.172C221.337 100.172 221.272 100.261 221.29 100.32L221.94 102.416C221.957 102.475 222.058 102.511 222.152 102.487Z" fill="#407BFF"/>
<path d="M210.856 109.455L207.012 108.026L207.602 111.681C207.602 111.681 210.389 112.685 211.812 111.398L210.856 109.455Z" fill="#E58A7B"/>
<path d="M203.35 108.994L202.435 111.392L207.601 111.681L207.011 108.026L203.35 108.994Z" fill="#E58A7B"/>
<path d="M207.301 105.38L207.803 105.286C207.897 105.286 207.968 105.203 207.944 105.138L207.295 103.048C207.295 102.983 207.182 102.953 207.082 102.971L206.58 103.066C206.48 103.066 206.415 103.154 206.438 103.213L207.088 105.31C207.106 105.369 207.2 105.404 207.301 105.38Z" fill="#407BFF"/>
<path d="M214.729 103.928L215.225 103.833C215.326 103.833 215.391 103.751 215.373 103.686L214.723 101.595C214.723 101.53 214.605 101.501 214.505 101.519L214.009 101.613C213.909 101.613 213.844 101.702 213.861 101.761L214.511 103.857C214.534 103.891 214.569 103.917 214.608 103.929C214.648 103.942 214.69 103.942 214.729 103.928Z" fill="#407BFF"/>
<path d="M212.627 71.1078C213.046 70.9484 213.571 72.4247 213.441 72.6136C213.14 73.0447 207.625 74.5505 207.377 73.706C207.362 73.2483 207.432 72.7917 207.584 72.3597C207.743 72.0763 208.966 72.5959 212.627 71.1078Z" fill="#407BFF"/>
<path d="M211.694 71.1433C211.907 70.6532 212.515 69.8678 213.046 70.3166C213.578 70.7654 213.802 71.7338 213.454 71.8932C213.105 72.0527 211.328 71.9641 211.694 71.1433Z" fill="#407BFF"/>
<path d="M212.822 71.3972C213.188 71.0075 214.003 70.4701 214.375 71.0724C214.747 71.6747 214.611 72.6609 214.234 72.6904C213.856 72.7199 212.202 72.0409 212.822 71.3972Z" fill="#407BFF"/>
<path d="M213.023 71.3087C212.993 70.9947 213.055 70.6788 213.2 70.3991C213.346 70.1194 213.569 69.8877 213.844 69.732C214.517 69.2951 215.172 69.0116 215.432 68.551C215.544 68.9828 215.566 69.433 215.497 69.8737C215.361 70.5056 213.265 70.9898 213.407 71.5389L213.023 71.3087Z" fill="#407BFF"/>
<path d="M212.934 71.2791C212.738 71.0313 212.618 70.7322 212.589 70.4178C212.56 70.1035 212.622 69.7874 212.768 69.5076C213.087 68.7754 213.489 68.1849 213.465 67.6653C213.793 67.9674 214.056 68.333 214.239 68.74C214.463 69.3305 212.969 70.8835 213.388 71.2732L212.934 71.2791Z" fill="#407BFF"/>
<path d="M254.003 186.633C253.991 186.633 253.979 186.629 253.969 186.623C253.959 186.617 253.95 186.608 253.944 186.598C253.808 186.409 240.309 167.147 235.361 150.223C232.132 139.367 229.65 128.303 227.933 117.108C226.911 110.801 226.291 106.992 224.26 103.869C224.246 103.854 224.238 103.835 224.238 103.816C224.238 103.796 224.246 103.777 224.26 103.762C224.274 103.75 224.291 103.744 224.31 103.744C224.328 103.744 224.346 103.75 224.36 103.762C226.415 106.916 227.035 110.736 228.057 117.061C229.782 128.24 232.268 139.288 235.497 150.128C240.439 167.029 253.926 186.267 254.062 186.462C254.073 186.476 254.079 186.494 254.079 186.512C254.079 186.53 254.073 186.548 254.062 186.562C254.061 186.579 254.055 186.595 254.044 186.608C254.034 186.62 254.019 186.629 254.003 186.633Z" fill="#407BFF"/>
<path opacity="0.4" d="M254.003 186.633C253.991 186.633 253.979 186.629 253.969 186.623C253.959 186.617 253.95 186.608 253.944 186.598C253.808 186.409 240.309 167.147 235.361 150.223C232.132 139.367 229.65 128.303 227.933 117.108C226.911 110.801 226.291 106.992 224.26 103.869C224.246 103.854 224.238 103.835 224.238 103.816C224.238 103.796 224.246 103.777 224.26 103.762C224.274 103.75 224.291 103.744 224.31 103.744C224.328 103.744 224.346 103.75 224.36 103.762C226.415 106.916 227.035 110.736 228.057 117.061C229.782 128.24 232.268 139.288 235.497 150.128C240.439 167.029 253.926 186.267 254.062 186.462C254.073 186.476 254.079 186.494 254.079 186.512C254.079 186.53 254.073 186.548 254.062 186.562C254.061 186.579 254.055 186.595 254.044 186.608C254.034 186.62 254.019 186.629 254.003 186.633Z" fill="black"/>
<path d="M229.055 200.846L220.032 202.016L219.441 199.5L228.836 197.51L229.055 200.846Z" fill="#407BFF"/>
<path d="M256.713 186.356L250.058 190.2L247.814 188.281L255.095 183.356L256.713 186.356Z" fill="#407BFF"/>
<path d="M225.482 79.2036C225.801 80.8452 225.984 82.3923 226.161 83.9926C226.338 85.5928 226.403 87.1753 226.451 88.7756C226.498 90.3884 226.462 92.0026 226.344 93.6118C226.279 94.4208 226.208 95.2297 226.096 96.0446C226.049 96.4462 225.996 96.8536 225.919 97.2611L225.701 98.5129C225.459 99.5333 225.015 100.495 224.396 101.341C223.888 102.054 223.327 102.727 222.719 103.355C221.579 104.526 220.356 105.611 219.057 106.603C216.547 108.536 213.889 110.271 211.109 111.793L209.846 109.833C211.027 108.894 212.208 107.925 213.389 106.939C214.57 105.953 215.692 104.955 216.772 103.916C217.84 102.916 218.848 101.853 219.79 100.733C220.222 100.215 220.617 99.6665 220.971 99.0916C221.25 98.6728 221.45 98.2065 221.561 97.7157C221.753 96.2823 221.866 94.8392 221.898 93.3933C221.898 92.6552 221.898 91.9171 221.898 91.1789C221.898 90.4408 221.868 89.6909 221.833 88.9468C221.762 87.4588 221.626 85.9944 221.467 84.4827C221.307 82.971 221.101 81.477 220.876 80.0775L225.482 79.2036Z" fill="#E58A7B"/>
<path d="M224.768 74.1844C227.289 76.2275 226.687 82.2978 226.687 82.2978L218.184 85.0968C218.184 85.0968 218.573 78.0994 218.998 75.5838C219.495 72.59 222.282 72.1708 224.768 74.1844Z" fill="#407BFF"/>
<path opacity="0.2" d="M224.768 74.1844C227.289 76.2275 226.687 82.2978 226.687 82.2978L218.184 85.0968C218.184 85.0968 218.573 78.0994 218.998 75.5838C219.495 72.59 222.282 72.1708 224.768 74.1844Z" fill="black"/>
<path d="M112.437 99.5168C112.107 98.085 111.301 96.8074 110.151 95.8925C109.002 94.9777 107.576 94.4797 106.106 94.4798H58.8666C57.1439 94.4798 55.4917 95.1641 54.2736 96.3823C53.0554 97.6004 52.3711 99.2526 52.3711 100.975V205.978C52.3711 207.701 53.0554 209.353 54.2736 210.571C55.4917 211.789 57.1439 212.473 58.8666 212.473H208.853C210.576 212.473 212.228 211.789 213.446 210.571C214.664 209.353 215.349 207.701 215.349 205.978V117.775C215.349 116.052 214.664 114.4 213.446 113.182C212.228 111.964 210.576 111.279 208.853 111.279H127.217C123.786 111.28 120.456 110.117 117.771 107.981C115.087 105.844 113.206 102.86 112.437 99.5168Z" fill="#407BFF"/>
<path opacity="0.6" d="M112.437 99.5168C112.107 98.085 111.301 96.8074 110.151 95.8925C109.002 94.9777 107.576 94.4797 106.106 94.4798H58.8666C57.1439 94.4798 55.4917 95.1641 54.2736 96.3823C53.0554 97.6004 52.3711 99.2526 52.3711 100.975V205.978C52.3711 207.701 53.0554 209.353 54.2736 210.571C55.4917 211.789 57.1439 212.473 58.8666 212.473H208.853C210.576 212.473 212.228 211.789 213.446 210.571C214.664 209.353 215.349 207.701 215.349 205.978V117.775C215.349 116.052 214.664 114.4 213.446 113.182C212.228 111.964 210.576 111.279 208.853 111.279H127.217C123.786 111.28 120.456 110.117 117.771 107.981C115.087 105.844 113.206 102.86 112.437 99.5168Z" fill="black"/>
<path opacity="0.22" d="M95.7607 66.8149L99.971 80.4496C100.508 82.1849 101.713 83.6359 103.319 84.484C104.926 85.3321 106.803 85.5079 108.539 84.9728L122.168 80.7625L95.7607 66.8149Z" fill="#407BFF"/>
<path d="M95.7612 66.8149L47.045 81.8668C46.185 82.131 45.3855 82.5621 44.6923 83.1356C43.9992 83.7091 43.4258 84.4136 43.0052 85.2088C42.5845 86.0041 42.3248 86.8745 42.2408 87.7702C42.1568 88.6659 42.2503 89.5694 42.5159 90.429L70.3284 180.468C70.5938 181.328 71.026 182.127 71.6003 182.82C72.1746 183.512 72.8798 184.085 73.6754 184.505C74.4711 184.925 75.3417 185.184 76.2376 185.268C77.1334 185.351 78.0369 185.257 78.8965 184.992L141.247 165.729C142.107 165.465 142.906 165.033 143.598 164.459C144.291 163.886 144.863 163.181 145.283 162.386C145.704 161.591 145.963 160.72 146.046 159.825C146.13 158.93 146.036 158.026 145.771 157.167L122.151 80.7625L95.7612 66.8149Z" fill="#407BFF"/>
<path opacity="0.8" d="M95.7612 66.8149L47.045 81.8668C46.185 82.131 45.3855 82.5621 44.6923 83.1356C43.9992 83.7091 43.4258 84.4136 43.0052 85.2088C42.5845 86.0041 42.3248 86.8745 42.2408 87.7702C42.1568 88.6659 42.2503 89.5694 42.5159 90.429L70.3284 180.468C70.5938 181.328 71.026 182.127 71.6003 182.82C72.1746 183.512 72.8798 184.085 73.6754 184.505C74.4711 184.925 75.3417 185.184 76.2376 185.268C77.1334 185.351 78.0369 185.257 78.8965 184.992L141.247 165.729C142.107 165.465 142.906 165.033 143.598 164.459C144.291 163.886 144.863 163.181 145.283 162.386C145.704 161.591 145.963 160.72 146.046 159.825C146.13 158.93 146.036 158.026 145.771 157.167L122.151 80.7625L95.7612 66.8149Z" fill="white"/>
<g opacity="0.28">
<path d="M121.973 161.797L81.4412 174.315C80.6832 174.548 79.8639 174.471 79.1623 174.102C78.4608 173.732 77.9341 173.1 77.6974 172.343C77.4667 171.585 77.5452 170.767 77.9158 170.066C78.2864 169.366 78.9191 168.841 79.6756 168.605L120.207 156.081C120.966 155.848 121.786 155.926 122.488 156.296C123.19 156.667 123.716 157.301 123.951 158.059C124.182 158.817 124.103 159.635 123.733 160.336C123.362 161.036 122.73 161.561 121.973 161.797Z" fill="#407BFF"/>
</g>
<g opacity="0.28">
<path d="M78.3531 88.3268L56.9179 94.9463C56.1599 95.1775 55.3413 95.1 54.6402 94.7306C53.9391 94.3613 53.4122 93.7299 53.1742 92.9741C52.9432 92.2153 53.0216 91.396 53.3921 90.6947C53.7627 89.9934 54.3954 89.4671 55.1524 89.2303L76.5875 82.6108C77.3455 82.3764 78.1655 82.4524 78.8675 82.8222C79.5695 83.192 80.0959 83.8253 80.3312 84.5831C80.5622 85.3418 80.4838 86.1611 80.1133 86.8624C79.7428 87.5637 79.11 88.0901 78.3531 88.3268Z" fill="#407BFF"/>
</g>
<g opacity="0.28">
<path d="M95.8437 95.3479L60.4137 106.29C59.6573 106.517 58.8418 106.437 58.1442 106.066C57.4467 105.696 56.9233 105.065 56.6877 104.312C56.455 103.554 56.532 102.736 56.9017 102.035C57.2713 101.335 57.9036 100.809 58.66 100.574L94.0899 89.6318C94.8479 89.399 95.6672 89.4758 96.3688 89.8454C97.0703 90.215 97.597 90.8473 97.8336 91.6041C98.0625 92.3645 97.9818 93.1844 97.6091 93.8855C97.2364 94.5866 96.6019 95.1122 95.8437 95.3479Z" fill="#407BFF"/>
</g>
<g opacity="0.28">
<path d="M115.625 101.66L63.9213 117.604C63.1641 117.836 62.3456 117.759 61.645 117.39C60.9444 117.02 60.4189 116.388 60.1835 115.632C59.9523 114.874 60.0298 114.055 60.3992 113.354C60.7685 112.653 61.3999 112.126 62.1558 111.888L113.86 95.9443C114.617 95.7133 115.435 95.7909 116.135 96.1604C116.835 96.5298 117.361 97.1611 117.598 97.9166C117.831 98.6746 117.754 99.4939 117.384 100.195C117.015 100.897 116.382 101.424 115.625 101.66Z" fill="#407BFF"/>
</g>
<g opacity="0.28">
<path d="M119.127 112.998L89.0706 122.286C88.3126 122.517 87.4941 122.439 86.7938 122.068C86.0934 121.697 85.5682 121.065 85.3327 120.308C85.1017 119.551 85.1794 118.733 85.5488 118.033C85.9183 117.333 86.5495 116.807 87.305 116.57L117.361 107.282C118.12 107.052 118.939 107.132 119.64 107.502C120.34 107.872 120.867 108.504 121.105 109.26C121.336 110.018 121.257 110.836 120.887 111.537C120.516 112.237 119.884 112.762 119.127 112.998Z" fill="#407BFF"/>
</g>
<g opacity="0.28">
<path d="M75.2887 126.544L67.4292 128.971C66.6712 129.204 65.8518 129.127 65.1503 128.757C64.4487 128.388 63.9221 127.755 63.6854 126.999C63.4528 126.24 63.5304 125.42 63.9012 124.718C64.272 124.016 64.9057 123.49 65.6636 123.255L73.5231 120.828C74.2811 120.597 75.0998 120.674 75.8009 121.044C76.502 121.413 77.0289 122.044 77.2669 122.8C77.4962 123.559 77.4171 124.378 77.0468 125.078C76.6765 125.779 76.0448 126.306 75.2887 126.544Z" fill="#407BFF"/>
</g>
<g opacity="0.28">
<path d="M122.635 124.341L70.9304 140.314C70.1724 140.545 69.3539 140.467 68.6536 140.096C67.9533 139.725 67.4281 139.093 67.1926 138.336C66.9599 137.579 67.0369 136.76 67.4065 136.06C67.7762 135.359 68.4085 134.834 69.1648 134.598L120.869 118.625C121.626 118.394 122.444 118.472 123.144 118.841C123.844 119.211 124.37 119.842 124.607 120.598C124.84 121.356 124.763 122.175 124.393 122.876C124.024 123.578 123.391 124.105 122.635 124.341Z" fill="#407BFF"/>
</g>
<g opacity="0.28">
<path d="M106.183 141.844L74.4321 151.652C73.6749 151.883 72.857 151.805 72.1569 151.436C71.4567 151.066 70.9309 150.435 70.6942 149.68C70.463 148.922 70.5406 148.103 70.9099 147.402C71.2793 146.701 71.9106 146.174 72.6665 145.936L104.418 136.128C105.176 135.897 105.996 135.975 106.697 136.346C107.398 136.716 107.925 137.349 108.161 138.106C108.394 138.864 108.316 139.683 107.945 140.384C107.574 141.085 106.941 141.61 106.183 141.844Z" fill="#407BFF"/>
</g>
<g opacity="0.28">
<path d="M126.137 135.685L117.663 138.301C116.904 138.532 116.085 138.453 115.384 138.083C114.682 137.712 114.156 137.08 113.919 136.323C113.688 135.565 113.767 134.746 114.137 134.046C114.508 133.345 115.141 132.82 115.897 132.585L124.371 129.969C125.128 129.736 125.947 129.813 126.647 130.183C127.348 130.552 127.873 131.185 128.109 131.941C128.342 132.699 128.265 133.518 127.895 134.22C127.526 134.922 126.893 135.448 126.137 135.685Z" fill="#407BFF"/>
</g>
<g opacity="0.28">
<path d="M129.638 147.034L77.9456 162.978C77.1868 163.21 76.3668 163.133 75.6651 162.762C74.9634 162.391 74.4373 161.757 74.2018 161C73.9694 160.242 74.0472 159.422 74.418 158.722C74.7889 158.021 75.4225 157.496 76.18 157.262L127.878 141.289C128.637 141.059 129.456 141.138 130.156 141.509C130.857 141.879 131.384 142.511 131.622 143.267C131.741 143.644 131.783 144.042 131.748 144.436C131.712 144.83 131.599 145.213 131.414 145.564C131.23 145.914 130.978 146.224 130.673 146.476C130.368 146.729 130.016 146.918 129.638 147.034Z" fill="#407BFF"/>
</g>
<path d="M130.748 32.9557L146.207 67.4054C146.608 68.3047 146.637 69.3263 146.288 70.2469C145.938 71.1675 145.238 71.9123 144.341 72.3184L78.7604 101.755C77.8613 102.158 76.8391 102.188 75.918 101.838C74.997 101.488 74.2523 100.787 73.8474 99.8888L58.3822 65.4391C57.9774 64.5393 57.9466 63.5157 58.2966 62.5932C58.6465 61.6707 59.3485 60.9251 60.2482 60.5202L125.829 31.0838C126.73 30.6826 127.753 30.6543 128.675 31.0051C129.596 31.3558 130.342 32.0571 130.748 32.9557Z" fill="#407BFF"/>
<path opacity="0.3" d="M130.748 32.9557L146.207 67.4054C146.608 68.3047 146.637 69.3263 146.288 70.2469C145.938 71.1675 145.238 71.9123 144.341 72.3184L78.7604 101.755C77.8613 102.158 76.8391 102.188 75.918 101.838C74.997 101.488 74.2523 100.787 73.8474 99.8888L58.3822 65.4391C57.9774 64.5393 57.9466 63.5157 58.2966 62.5932C58.6465 61.6707 59.3485 60.9251 60.2482 60.5202L125.829 31.0838C126.73 30.6826 127.753 30.6543 128.675 31.0051C129.596 31.3558 130.342 32.0571 130.748 32.9557Z" fill="black"/>
<path d="M120.412 31.2535L118.316 32.1936L118.558 32.7324L120.654 31.7922L120.412 31.2535Z" fill="#407BFF"/>
<path d="M115.381 33.5075L108.846 36.4391L109.087 36.9779L115.623 34.0462L115.381 33.5075Z" fill="#407BFF"/>
<path d="M58.3248 68.911L57.7861 69.1528L59.576 73.1391L60.1147 72.8973L58.3248 68.911Z" fill="#407BFF"/>
<path opacity="0.6" d="M128.551 30.9598L111.639 64.0868C110.07 67.1573 107.5 69.6003 104.354 71.0123C101.208 72.4242 97.6747 72.7204 94.3376 71.8519L58.3467 62.4689C58.7159 61.6053 59.3939 60.9105 60.2481 60.5202L125.829 31.0838C126.688 30.6997 127.661 30.6554 128.551 30.9598Z" fill="#407BFF"/>
<path d="M151.799 73.3577L100.91 76.4991C100.011 76.5526 99.1315 76.7828 98.3215 77.1766C97.5115 77.5704 96.7872 78.1201 96.1899 78.7941C95.5926 79.4682 95.1341 80.2535 94.8406 81.1049C94.5472 81.9564 94.4245 82.8574 94.4797 83.7564L100.284 177.811C100.338 178.711 100.57 179.591 100.964 180.401C101.359 181.211 101.91 181.935 102.585 182.532C103.261 183.129 104.047 183.586 104.9 183.879C105.752 184.171 106.654 184.292 107.553 184.236L172.685 180.214C173.583 180.16 174.462 179.929 175.271 179.535C176.079 179.141 176.802 178.591 177.398 177.917C177.994 177.242 178.45 176.457 178.742 175.606C179.034 174.755 179.155 173.855 179.098 172.957L174.197 93.1394L151.799 73.3577Z" fill="#407BFF"/>
<path opacity="0.8" d="M151.799 73.3577L100.91 76.4991C100.011 76.5526 99.1315 76.7828 98.3215 77.1766C97.5115 77.5704 96.7872 78.1201 96.1899 78.7941C95.5926 79.4682 95.1341 80.2535 94.8406 81.1049C94.5472 81.9564 94.4245 82.8574 94.4797 83.7564L100.284 177.811C100.338 178.711 100.57 179.591 100.964 180.401C101.359 181.211 101.91 181.935 102.585 182.532C103.261 183.129 104.047 183.586 104.9 183.879C105.752 184.171 106.654 184.292 107.553 184.236L172.685 180.214C173.583 180.16 174.462 179.929 175.271 179.535C176.079 179.141 176.802 178.591 177.398 177.917C177.994 177.242 178.45 176.457 178.742 175.606C179.034 174.755 179.155 173.855 179.098 172.957L174.197 93.1394L151.799 73.3577Z" fill="white"/>
<g opacity="0.22">
<path d="M154.876 171.835L112.531 174.451C111.74 174.496 110.963 174.227 110.37 173.701C109.777 173.176 109.416 172.437 109.366 171.646C109.321 170.856 109.589 170.079 110.114 169.485C110.638 168.891 111.375 168.528 112.165 168.475L154.51 165.865C155.301 165.818 156.079 166.086 156.673 166.611C157.267 167.135 157.629 167.873 157.681 168.664C157.728 169.456 157.459 170.235 156.933 170.829C156.408 171.423 155.668 171.785 154.876 171.835Z" fill="#407BFF"/>
</g>
<g opacity="0.22">
<path d="M129.816 90.1574L107.418 91.5273C106.627 91.5727 105.851 91.3041 105.257 90.78C104.663 90.2559 104.3 89.5186 104.247 88.7283C104.202 87.9367 104.471 87.1592 104.997 86.5653C105.522 85.9713 106.261 85.609 107.052 85.5574L129.45 84.1756C130.24 84.1287 131.017 84.3969 131.61 84.9215C132.203 85.4461 132.565 86.1843 132.615 86.9746C132.665 87.7676 132.398 88.5482 131.874 89.1449C131.349 89.7416 130.609 90.1058 129.816 90.1574Z" fill="#407BFF"/>
</g>
<g opacity="0.22">
<path d="M145.156 101.105L108.15 103.385C107.358 103.433 106.58 103.166 105.986 102.641C105.391 102.116 105.029 101.377 104.979 100.586C104.932 99.7935 105.201 99.0152 105.726 98.4209C106.252 97.8266 106.992 97.4647 107.784 97.4146L144.784 95.1353C145.576 95.0867 146.354 95.3542 146.949 95.879C147.543 96.4037 147.905 97.1429 147.955 97.9342C148.002 98.7253 147.734 99.5028 147.21 100.097C146.685 100.691 145.947 101.054 145.156 101.105Z" fill="#407BFF"/>
</g>
<g opacity="0.22">
<path d="M162.889 111.905L108.882 115.236C108.089 115.284 107.308 115.016 106.712 114.491C106.115 113.965 105.751 113.224 105.7 112.431C105.653 111.64 105.921 110.864 106.445 110.27C106.97 109.677 107.708 109.316 108.499 109.266L162.511 105.93C163.303 105.884 164.079 106.154 164.672 106.679C165.265 107.205 165.626 107.944 165.677 108.734C165.724 109.524 165.457 110.299 164.935 110.893C164.413 111.487 163.678 111.851 162.889 111.905Z" fill="#407BFF"/>
</g>
<g opacity="0.22">
<path d="M163.621 123.751L132.224 125.688C131.433 125.735 130.656 125.467 130.062 124.942C129.468 124.418 129.105 123.679 129.053 122.889C129.005 122.097 129.272 121.319 129.797 120.724C130.322 120.13 131.061 119.768 131.852 119.718L163.249 117.781C164.041 117.732 164.819 118 165.414 118.525C166.008 119.049 166.37 119.788 166.42 120.58C166.467 121.371 166.199 122.148 165.675 122.743C165.15 123.337 164.412 123.699 163.621 123.751Z" fill="#407BFF"/>
</g>
<g opacity="0.22">
<path d="M117.823 126.573L109.609 127.081C108.818 127.128 108.041 126.86 107.448 126.335C106.855 125.811 106.494 125.073 106.444 124.282C106.397 123.491 106.665 122.714 107.189 122.12C107.714 121.525 108.452 121.163 109.243 121.111L117.457 120.603C118.248 120.558 119.026 120.828 119.62 121.353C120.214 121.878 120.576 122.617 120.628 123.408C120.673 124.199 120.403 124.976 119.878 125.569C119.352 126.162 118.613 126.523 117.823 126.573Z" fill="#407BFF"/>
</g>
<g opacity="0.22">
<path d="M164.354 135.596L110.341 138.927C109.55 138.974 108.772 138.706 108.178 138.181C107.584 137.657 107.222 136.919 107.17 136.128C107.125 135.336 107.394 134.559 107.919 133.965C108.445 133.371 109.184 133.008 109.975 132.957L163.982 129.626C164.774 129.579 165.552 129.848 166.147 130.374C166.741 130.9 167.103 131.639 167.153 132.431C167.2 133.222 166.932 133.999 166.407 134.592C165.882 135.185 165.144 135.546 164.354 135.596Z" fill="#407BFF"/>
</g>
<g opacity="0.22">
<path d="M144.241 148.729L111.072 150.778C110.281 150.823 109.503 150.554 108.909 150.029C108.315 149.503 107.953 148.764 107.901 147.973C107.856 147.182 108.126 146.405 108.651 145.812C109.177 145.219 109.915 144.858 110.706 144.808L143.875 142.759C144.666 142.714 145.442 142.983 146.035 143.509C146.628 144.034 146.989 144.773 147.04 145.564C147.088 146.355 146.82 147.133 146.296 147.726C145.771 148.32 145.032 148.68 144.241 148.729Z" fill="#407BFF"/>
</g>
<g opacity="0.22">
<path d="M165.08 147.448L156.222 147.991C155.432 148.038 154.655 147.77 154.062 147.245C153.469 146.72 153.108 145.982 153.057 145.192C153.009 144.4 153.276 143.622 153.801 143.028C154.326 142.433 155.065 142.071 155.856 142.021L164.714 141.478C165.505 141.429 166.284 141.697 166.878 142.221C167.473 142.746 167.835 143.485 167.885 144.277C167.93 145.068 167.661 145.846 167.135 146.44C166.61 147.034 165.871 147.396 165.08 147.448Z" fill="#407BFF"/>
</g>
<g opacity="0.22">
<path d="M165.812 159.293L111.805 162.623C111.014 162.67 110.237 162.402 109.642 161.878C109.048 161.353 108.686 160.615 108.634 159.824C108.587 159.033 108.855 158.256 109.38 157.662C109.904 157.068 110.642 156.705 111.433 156.653L165.446 153.323C166.237 153.276 167.013 153.544 167.607 154.069C168.2 154.593 168.561 155.332 168.611 156.122C168.66 156.913 168.392 157.692 167.867 158.286C167.343 158.881 166.604 159.243 165.812 159.293Z" fill="#407BFF"/>
</g>
<path opacity="0.22" d="M151.8 73.3577L152.68 87.6005C152.735 88.4985 152.966 89.3769 153.36 90.1855C153.755 90.9942 154.305 91.7172 154.979 92.3132C155.653 92.9093 156.437 93.3667 157.288 93.6594C158.139 93.9522 159.039 94.0744 159.937 94.0192L174.197 93.1394L151.8 73.3577Z" fill="#407BFF"/>
<path opacity="0.5" d="M135.136 108.888C135.127 108.205 134.981 107.532 134.707 106.906C134.434 106.281 134.037 105.717 133.542 105.247C133.047 104.778 132.462 104.412 131.823 104.172C131.184 103.933 130.503 103.823 129.821 103.851H82.5223C78.9379 103.851 75.4363 106.762 74.7631 110.346L56.0974 205.978C55.4006 209.562 57.739 212.473 61.3233 212.473H211.31C214.894 212.473 218.367 209.568 219.069 205.978L234.464 127.146C235.16 123.556 232.822 120.651 229.238 120.651H147.625C140.539 120.651 135.378 115.773 135.136 108.888Z" fill="#407BFF"/>
</svg>
