<svg width="382" height="284" viewBox="0 0 382 284" fill="none" xmlns="http://www.w3.org/2000/svg">
<path d="M381.147 249.575H0V249.765H381.147V249.575Z" fill="#E0E0E0"/>
<path d="M287.888 257.647H261.665V257.838H287.888V257.647Z" fill="#E0E0E0"/>
<path d="M84.6447 257.739H69.8867V257.929H84.6447V257.739Z" fill="#E0E0E0"/>
<path d="M191.335 257.297H161.423V257.487H191.335V257.297Z" fill="#E0E0E0"/>
<path d="M160.661 254.583H147.29V254.774H160.661V254.583Z" fill="#E0E0E0"/>
<path d="M323.639 254.682H283.245V254.873H323.639V254.682Z" fill="#E0E0E0"/>
<path d="M180.663 215.577H33.472C32.3189 215.574 31.2138 215.115 30.3991 214.299C29.5845 213.483 29.127 212.377 29.127 211.224V4.31458C29.137 3.16811 29.599 2.0719 30.4125 1.26405C31.2261 0.456201 32.3255 0.00196396 33.472 0H180.663C181.818 0 182.925 0.458586 183.741 1.27487C184.557 2.09116 185.016 3.19829 185.016 4.35269V211.224C185.016 212.378 184.557 213.485 183.741 214.302C182.925 215.118 181.818 215.577 180.663 215.577ZM33.472 0.152459C32.3695 0.154479 31.3128 0.593876 30.5339 1.37421C29.755 2.15454 29.3175 3.21204 29.3175 4.31458V211.224C29.3175 212.326 29.755 213.384 30.5339 214.164C31.3128 214.945 32.3695 215.384 33.472 215.386H180.663C181.766 215.384 182.824 214.945 183.604 214.165C184.384 213.385 184.823 212.327 184.825 211.224V4.31458C184.823 3.21134 184.384 2.15385 183.604 1.37374C182.824 0.593628 181.766 0.154474 180.663 0.152459H33.472Z" fill="#E0E0E0"/>
<path d="M345.555 215.577H198.357C197.203 215.574 196.097 215.115 195.281 214.299C194.465 213.484 194.006 212.378 194.004 211.224V4.31458C194.016 3.16741 194.48 2.07121 195.294 1.26357C196.109 0.455934 197.209 0.00194254 198.357 0H345.555C346.701 0.00396735 347.798 0.45909 348.61 1.26672C349.422 2.07436 349.883 3.16943 349.893 4.31458V211.224C349.893 212.376 349.436 213.48 348.623 214.296C347.81 215.112 346.707 215.572 345.555 215.577ZM198.357 0.152459C197.253 0.154474 196.196 0.593628 195.416 1.37374C194.636 2.15385 194.196 3.21134 194.194 4.31458V211.224C194.196 212.327 194.636 213.385 195.416 214.165C196.196 214.945 197.253 215.384 198.357 215.386H345.555C346.659 215.384 347.716 214.945 348.496 214.165C349.276 213.385 349.716 212.327 349.718 211.224V4.31458C349.716 3.21134 349.276 2.15385 348.496 1.37374C347.716 0.593628 346.659 0.154474 345.555 0.152459H198.357Z" fill="#E0E0E0"/>
<path d="M334.883 154.159C325.507 139.881 334.067 124.536 332.642 108.65C331.216 92.7635 316.123 89.3026 318.982 75.871C322.29 60.2593 313.47 45.2802 303.477 45.2802C293.483 45.2802 284.671 60.2212 287.979 75.8482C290.838 89.3026 275.782 92.7711 274.319 108.627C272.855 124.482 281.454 139.881 272.07 154.136C262.686 168.391 265.156 187.318 270.439 196.702C271.844 199.192 273.538 201.508 275.485 203.601C279.065 207.444 283.399 210.509 288.215 212.605C293.031 214.701 298.228 215.782 303.48 215.782C308.733 215.782 313.929 214.701 318.746 212.605C323.562 210.509 327.895 207.444 331.476 203.601C333.418 201.505 335.109 199.19 336.514 196.702C341.805 187.341 344.267 168.467 334.883 154.159Z" fill="#E0E0E0"/>
<path d="M303.477 164.991C304.099 164.991 304.716 165.113 305.291 165.352C305.867 165.59 306.389 165.939 306.83 166.38C307.27 166.82 307.619 167.343 307.857 167.918C308.096 168.493 308.218 169.11 308.218 169.732V249.575H298.735V169.732C298.735 169.11 298.858 168.493 299.096 167.918C299.335 167.343 299.684 166.82 300.124 166.38C300.564 165.939 301.087 165.59 301.662 165.352C302.238 165.113 302.854 164.991 303.477 164.991Z" fill="#F0F0F0"/>
<path d="M243.865 249.575H230.975V169.74C230.979 168.029 231.66 166.389 232.87 165.179C234.08 163.969 235.72 163.287 237.431 163.283C239.142 163.287 240.782 163.969 241.992 165.179C243.202 166.389 243.884 168.029 243.888 169.74L243.865 249.575Z" fill="#E0E0E0"/>
<path d="M237.408 228.04C259.372 228.04 277.177 210.235 277.177 188.271C277.177 166.308 259.372 148.502 237.408 148.502C215.445 148.502 197.64 166.308 197.64 188.271C197.64 210.235 215.445 228.04 237.408 228.04Z" fill="#F0F0F0"/>
<path d="M284.14 176.338C286.226 167.937 281.108 159.436 272.708 157.349C264.307 155.262 255.805 160.38 253.719 168.781C251.632 177.182 256.75 185.683 265.151 187.77C273.551 189.857 282.053 184.738 284.14 176.338Z" fill="#F0F0F0"/>
<path d="M214.396 164.769C215.22 159.712 211.788 154.945 206.731 154.122C201.674 153.298 196.907 156.73 196.083 161.787C195.259 166.844 198.691 171.611 203.748 172.434C208.805 173.258 213.572 169.826 214.396 164.769Z" fill="#F0F0F0"/>
<path d="M215.332 164.991C218.928 164.991 221.842 162.076 221.842 158.481C221.842 154.885 218.928 151.971 215.332 151.971C211.737 151.971 208.822 154.885 208.822 158.481C208.822 162.076 211.737 164.991 215.332 164.991Z" fill="#F0F0F0"/>
<path d="M155.508 201.924C149.324 202.845 143.414 205.1 138.188 208.533C138.143 202.496 137.037 196.771 134.202 192.144C129.887 196.344 126.388 201.787 123.529 207.641C122.485 196.672 119.596 186 113.2 179.238C103.618 185.268 98.6786 195.315 96.3308 205.956C92.452 198.781 86.8221 192.703 79.9644 188.286C74.1023 194.461 72.2271 202.999 72.3872 211.75C65.7247 203.99 58.3305 197.937 51.1192 197.228C49.343 209.493 53.124 221.065 57.9341 230.213C61.0569 236.082 65.7223 240.987 71.4273 244.4C77.1322 247.814 83.6606 249.605 90.3087 249.582H121.631C134.979 249.582 147.496 242.463 153.754 230.67C157.711 223.199 159.601 213.587 155.508 201.924Z" fill="#E0E0E0"/>
<path d="M146.558 43.5573C150.423 32.222 147.32 24.1494 137.891 24.1494C131.96 24.1494 124.604 27.3281 117.439 32.4965C116.63 29.5464 114.351 27.7855 110.685 27.7855C104.228 27.7855 95.332 33.2435 88.357 40.9427C86.3933 39.0769 83.7935 38.0278 81.0848 38.0078C74.9026 37.6572 67.4245 40.7978 60.9221 45.8976C60.5963 45.4416 60.1661 45.0701 59.6675 44.8142C59.1689 44.5582 58.6163 44.4253 58.0559 44.4264C54.496 44.2282 49.6707 47.3993 47.2847 51.5004C47.1398 51.752 47.0103 52.0035 46.873 52.2627H148.433C148.738 48.6799 148.106 45.6918 146.558 43.5573Z" fill="#F0F0F0"/>
<path d="M146.871 112.385C148.761 106.851 147.26 102.91 142.64 102.91C139.736 102.91 136.145 104.434 132.646 106.988C132.458 106.276 132.022 105.656 131.417 105.236C130.812 104.817 130.078 104.627 129.346 104.701C126.197 104.701 121.852 107.369 118.437 111.135C117.48 110.22 116.209 109.707 114.885 109.702C111.836 109.526 108.215 111.058 105.036 113.551C104.882 113.331 104.678 113.15 104.441 113.023C104.204 112.895 103.941 112.826 103.672 112.819C101.934 112.72 99.5782 114.268 98.4119 116.273L98.2061 116.638H147.816C148.023 115.153 147.688 113.643 146.871 112.385Z" fill="#F0F0F0"/>
<path d="M261.291 70.5046C260.9 70.4496 260.505 70.4216 260.11 70.4207C260.476 64.8941 258.364 61.3571 253.844 61.3571C250.589 61.3571 246.587 63.2018 242.516 66.3196C243.682 55.5865 239.947 48.6115 231.486 48.6115C224.671 48.6115 216.034 53.1853 207.504 60.549C206.742 56.3412 204.241 53.8104 200.018 53.8104C192.601 53.8104 182.059 61.6162 173.605 72.6238C172.641 71.3545 171.406 70.317 169.989 69.5875C168.573 68.8581 167.011 68.4551 165.418 68.4083C158.359 67.9128 149.585 72.3951 141.787 79.6978C141.503 79.082 141.051 78.5587 140.484 78.1879C139.916 77.8171 139.255 77.6139 138.577 77.6015C134.713 77.3271 129.43 81.3596 126.297 86.749H267.504C270.82 78.5773 268.183 71.427 261.291 70.5046Z" fill="#F0F0F0"/>
<path d="M190.573 284C272.202 284 338.375 280.137 338.375 275.371C338.375 270.605 272.202 266.742 190.573 266.742C108.945 266.742 42.7725 270.605 42.7725 275.371C42.7725 280.137 108.945 284 190.573 284Z" fill="#F5F5F5"/>
<path d="M37.2461 72.8448L211.026 97.8633L234.345 121.395L37.2461 72.8448Z" fill="#407BFF"/>
<path opacity="0.6" d="M37.2461 72.8448L211.026 97.8633L234.345 121.395L37.2461 72.8448Z" fill="white"/>
<path d="M37.2461 72.8448L211.026 97.8633L202.961 131.892L37.2461 72.8448Z" fill="#407BFF"/>
<path opacity="0.2" d="M37.2461 72.8448L211.026 97.8633L202.961 131.892L37.2461 72.8448Z" fill="black"/>
<path d="M199.393 33.4495L209.478 80.7117C209.741 81.9459 209.503 83.2336 208.817 84.2926C208.131 85.3515 207.053 86.0952 205.819 86.3603L115.808 105.57C114.574 105.83 113.287 105.592 112.228 104.906C111.17 104.22 110.426 103.144 110.159 101.911L100.066 54.6489C99.8062 53.4139 100.046 52.1261 100.733 51.0675C101.42 50.0089 102.499 49.2656 103.733 49.0003L193.744 29.7905C194.98 29.5305 196.267 29.7703 197.326 30.4575C198.385 31.1446 199.128 32.2232 199.393 33.4571V33.4495Z" fill="#407BFF"/>
<path opacity="0.4" d="M199.393 33.4495L209.478 80.7117C209.741 81.9459 209.503 83.2336 208.817 84.2926C208.131 85.3515 207.053 86.0952 205.819 86.3603L115.808 105.57C114.574 105.83 113.287 105.592 112.228 104.906C111.17 104.22 110.426 103.144 110.159 101.911L100.066 54.6489C99.8062 53.4139 100.046 52.1261 100.733 51.0675C101.42 50.0089 102.499 49.2656 103.733 49.0003L193.744 29.7905C194.98 29.5305 196.267 29.7703 197.326 30.4575C198.385 31.1446 199.128 32.2232 199.393 33.4571V33.4495Z" fill="black"/>
<path d="M197.175 30.3546L167.103 67.2725C164.314 70.6953 160.44 73.0635 156.122 73.9853C151.804 74.9071 147.301 74.3272 143.357 72.3417L100.829 50.9213C101.517 49.9329 102.556 49.2434 103.733 48.9927L193.745 29.7829C194.92 29.5329 196.145 29.7372 197.175 30.3546Z" fill="#407BFF"/>
<path d="M37.2461 72.8448L180.58 106.912L202.961 131.892L37.2461 72.8448Z" fill="#407BFF"/>
<path opacity="0.6" d="M37.2461 72.8448L180.58 106.912L202.961 131.892L37.2461 72.8448Z" fill="white"/>
<path d="M89.5308 105.681L89.1455 106.339L105.096 115.682L105.481 115.024L89.5308 105.681Z" fill="#407BFF"/>
<path d="M112.524 119.143L112.139 119.801L117.874 123.16L118.26 122.503L112.524 119.143Z" fill="#407BFF"/>
<path d="M37.2461 72.8448L180.58 106.912L152.718 140.491L37.2461 72.8448Z" fill="#407BFF"/>
<path d="M228.963 152.657C228.77 152.657 228.578 152.621 228.399 152.55L205.057 143.311C204.684 143.161 204.385 142.869 204.226 142.499C204.067 142.129 204.061 141.711 204.209 141.337C204.357 140.962 204.647 140.661 205.016 140.5C205.385 140.339 205.803 140.33 206.178 140.475L229.527 149.714C229.857 149.845 230.132 150.087 230.303 150.398C230.474 150.709 230.531 151.07 230.464 151.419C230.397 151.768 230.211 152.083 229.937 152.309C229.662 152.534 229.318 152.658 228.963 152.657Z" fill="#407BFF"/>
<path opacity="0.3" d="M228.963 152.657C228.77 152.657 228.578 152.621 228.399 152.55L205.057 143.311C204.684 143.161 204.385 142.869 204.226 142.499C204.067 142.129 204.061 141.711 204.209 141.337C204.357 140.962 204.647 140.661 205.016 140.5C205.385 140.339 205.803 140.33 206.178 140.475L229.527 149.714C229.857 149.845 230.132 150.087 230.303 150.398C230.474 150.709 230.531 151.07 230.464 151.419C230.397 151.768 230.211 152.083 229.937 152.309C229.662 152.534 229.318 152.658 228.963 152.657Z" fill="black"/>
<path d="M227.584 139.271C227.392 139.27 227.203 139.231 227.027 139.157L214.487 134.164C214.3 134.091 214.129 133.982 213.983 133.843C213.838 133.704 213.722 133.537 213.641 133.353C213.561 133.169 213.518 132.971 213.514 132.77C213.51 132.569 213.546 132.369 213.62 132.182C213.694 131.995 213.804 131.824 213.944 131.68C214.085 131.536 214.252 131.421 214.436 131.341C214.621 131.262 214.82 131.22 215.021 131.218C215.222 131.215 215.421 131.253 215.608 131.328L228.148 136.298C228.523 136.446 228.825 136.737 228.987 137.107C229.148 137.477 229.156 137.896 229.009 138.273C228.902 138.565 228.708 138.817 228.453 138.995C228.198 139.174 227.895 139.27 227.584 139.271Z" fill="#407BFF"/>
<path opacity="0.5" d="M227.584 139.271C227.392 139.27 227.203 139.231 227.027 139.157L214.487 134.164C214.3 134.091 214.129 133.982 213.983 133.843C213.838 133.704 213.722 133.537 213.641 133.353C213.561 133.169 213.518 132.971 213.514 132.77C213.51 132.569 213.546 132.369 213.62 132.182C213.694 131.995 213.804 131.824 213.944 131.68C214.085 131.536 214.252 131.421 214.436 131.341C214.621 131.262 214.82 131.22 215.021 131.218C215.222 131.215 215.421 131.253 215.608 131.328L228.148 136.298C228.523 136.446 228.825 136.737 228.987 137.107C229.148 137.477 229.156 137.896 229.009 138.273C228.902 138.565 228.708 138.817 228.453 138.995C228.198 139.174 227.895 139.27 227.584 139.271Z" fill="white"/>
<path d="M201.368 152.459C201.178 152.456 200.989 152.42 200.812 152.352L178.042 143.311C177.855 143.239 177.683 143.13 177.538 142.99C177.393 142.851 177.277 142.685 177.196 142.501C177.116 142.316 177.072 142.118 177.069 141.917C177.065 141.716 177.101 141.516 177.175 141.329C177.249 141.142 177.359 140.972 177.499 140.828C177.639 140.683 177.806 140.568 177.991 140.489C178.176 140.409 178.375 140.367 178.576 140.365C178.777 140.363 178.976 140.4 179.163 140.475L201.932 149.486C202.263 149.616 202.537 149.858 202.708 150.169C202.879 150.481 202.936 150.842 202.869 151.191C202.802 151.539 202.616 151.854 202.342 152.08C202.068 152.306 201.723 152.429 201.368 152.428V152.459Z" fill="#407BFF"/>
<path opacity="0.3" d="M201.368 152.459C201.178 152.456 200.989 152.42 200.812 152.352L178.042 143.311C177.855 143.239 177.683 143.13 177.538 142.99C177.393 142.851 177.277 142.685 177.196 142.501C177.116 142.316 177.072 142.118 177.069 141.917C177.065 141.716 177.101 141.516 177.175 141.329C177.249 141.142 177.359 140.972 177.499 140.828C177.639 140.683 177.806 140.568 177.991 140.489C178.176 140.409 178.375 140.367 178.576 140.365C178.777 140.363 178.976 140.4 179.163 140.475L201.932 149.486C202.263 149.616 202.537 149.858 202.708 150.169C202.879 150.481 202.936 150.842 202.869 151.191C202.802 151.539 202.616 151.854 202.342 152.08C202.068 152.306 201.723 152.429 201.368 152.428V152.459Z" fill="black"/>
<path d="M283.802 83.715C285.822 87.6561 287.675 91.6048 289.436 95.6449C291.197 99.6851 292.836 103.779 294.269 108.07L294.787 109.694C294.879 109.984 295.008 110.456 295.084 110.792C295.161 111.127 295.229 111.508 295.267 111.828C295.442 113.058 295.531 114.299 295.534 115.541C295.546 117.832 295.439 120.122 295.214 122.401C294.788 126.815 294.096 131.198 293.14 135.528L288.956 135.063C288.902 130.771 288.864 126.434 288.712 122.203C288.643 120.099 288.521 117.988 288.308 116.006C288.211 115.075 288.058 114.151 287.85 113.239C287.812 113.025 287.751 112.865 287.705 112.69C287.66 112.514 287.614 112.453 287.538 112.225L286.958 110.784C285.365 106.927 283.574 103.039 281.744 99.1667L276.21 87.5494L283.802 83.715Z" fill="#E4897B"/>
<path d="M289.016 133.721L287.064 137.373L293.3 139.111C293.3 139.111 294.489 136.176 293.071 133.859L289.016 133.721Z" fill="#E4897B"/>
<path d="M284.679 142.633L290.411 143.09L293.3 139.111L287.065 137.373L284.679 142.633Z" fill="#E4897B"/>
<path d="M257.556 57.3701C257.473 57.8198 257.16 58.1324 256.87 58.0714C256.581 58.0104 256.421 57.6064 256.512 57.1643C256.604 56.7221 256.908 56.402 257.198 56.463C257.488 56.5239 257.655 56.928 257.556 57.3701Z" fill="#263238"/>
<path d="M257.206 58.1323C256.4 59.3795 255.428 60.5105 254.316 61.494C254.576 61.7702 254.892 61.9868 255.244 62.1289C255.595 62.2711 255.973 62.3353 256.352 62.3173L257.206 58.1323Z" fill="#DE5753"/>
<path d="M259.676 55.2434C259.604 55.2416 259.535 55.2114 259.485 55.1595C259.266 54.909 258.991 54.7136 258.683 54.5892C258.374 54.4647 258.04 54.4146 257.709 54.443C257.646 54.4436 257.584 54.4218 257.536 54.3814C257.487 54.3411 257.454 54.2848 257.444 54.2226C257.433 54.1603 257.444 54.0963 257.476 54.0417C257.508 53.9871 257.558 53.9457 257.617 53.9246C258.041 53.8709 258.472 53.9228 258.871 54.0758C259.27 54.2287 259.625 54.4779 259.904 54.8013C259.953 54.8511 259.981 54.9182 259.981 54.988C259.981 55.0579 259.953 55.1249 259.904 55.1748C259.874 55.2027 259.837 55.2234 259.798 55.2353C259.758 55.2471 259.716 55.2499 259.676 55.2434Z" fill="#263238"/>
<path d="M270.165 63.598C269.364 67.6992 268.564 75.2001 271.43 77.9368C271.43 77.9368 270.309 82.0913 262.694 82.0913C254.309 82.0913 258.7 77.9368 258.7 77.9368C263.274 76.8467 263.144 73.4545 262.351 70.2757L270.165 63.598Z" fill="#E4897B"/>
<path d="M272.581 80.521C273.183 78.5162 273.846 76.2217 272.474 75.4975C270.95 74.7352 262.664 73.8967 259.805 75.3832C256.946 76.8696 257.762 80.9479 257.762 80.9479L272.581 80.521Z" fill="#263238"/>
<path d="M290.16 270.614C289.923 270.646 289.682 270.629 289.452 270.567C289.221 270.504 289.006 270.396 288.818 270.248C288.752 270.156 288.716 270.045 288.716 269.932C288.716 269.818 288.752 269.708 288.818 269.616C288.861 269.537 288.921 269.468 288.994 269.414C289.066 269.36 289.149 269.322 289.237 269.303C290.06 269.12 291.6 270.172 291.669 270.218C291.689 270.234 291.704 270.255 291.713 270.279C291.723 270.303 291.726 270.329 291.722 270.355C291.718 270.38 291.706 270.402 291.688 270.42C291.671 270.438 291.648 270.45 291.623 270.454C291.142 270.558 290.652 270.611 290.16 270.614ZM289.458 269.547H289.298C289.247 269.558 289.198 269.58 289.156 269.611C289.114 269.643 289.079 269.683 289.054 269.73C288.932 269.943 289.008 270.035 289.054 270.065C289.291 270.385 290.434 270.385 291.272 270.248C290.726 269.888 290.106 269.653 289.458 269.562V269.547Z" fill="#407BFF"/>
<path d="M291.592 270.477H291.531C290.952 270.157 289.831 268.952 289.946 268.312C289.965 268.213 290.018 268.124 290.096 268.06C290.174 267.996 290.272 267.961 290.373 267.961C290.473 267.951 290.575 267.96 290.671 267.989C290.768 268.017 290.858 268.065 290.937 268.129C291.585 268.663 291.699 270.279 291.699 270.347C291.702 270.371 291.698 270.396 291.687 270.418C291.676 270.439 291.659 270.457 291.638 270.469C291.623 270.475 291.608 270.478 291.592 270.477ZM290.464 268.19H290.434C290.258 268.19 290.243 268.297 290.235 268.327C290.167 268.701 290.883 269.623 291.455 270.058C291.416 269.421 291.188 268.81 290.799 268.304C290.748 268.264 290.689 268.235 290.626 268.218C290.564 268.201 290.498 268.197 290.434 268.205L290.464 268.19Z" fill="#407BFF"/>
<path d="M256.534 270.614C255.818 270.614 255.124 270.515 254.888 270.195C254.828 270.11 254.796 270.009 254.796 269.905C254.796 269.801 254.828 269.7 254.888 269.615C254.934 269.537 254.996 269.469 255.069 269.415C255.142 269.362 255.226 269.323 255.315 269.303C256.237 269.051 258.204 270.164 258.287 270.21C258.31 270.225 258.328 270.245 258.338 270.27C258.349 270.294 258.353 270.321 258.348 270.347C258.344 270.374 258.331 270.399 258.312 270.418C258.293 270.437 258.268 270.45 258.242 270.454C257.679 270.56 257.107 270.614 256.534 270.614ZM255.642 269.532C255.559 269.519 255.474 269.519 255.391 269.532C255.337 269.542 255.286 269.564 255.242 269.595C255.197 269.627 255.159 269.668 255.132 269.715C255.032 269.882 255.071 269.958 255.132 270.004C255.383 270.355 256.801 270.378 257.853 270.233C257.168 269.863 256.417 269.63 255.642 269.547V269.532Z" fill="#407BFF"/>
<path d="M258.227 270.477H258.173C257.495 270.18 256.161 268.952 256.26 268.335C256.26 268.182 256.39 267.999 256.756 267.961C256.892 267.941 257.031 267.95 257.162 267.99C257.294 268.029 257.416 268.098 257.518 268.19C258.234 268.769 258.379 270.279 258.387 270.347C258.39 270.37 258.386 270.394 258.377 270.416C258.368 270.437 258.353 270.456 258.334 270.469C258.317 270.478 258.299 270.483 258.281 270.485C258.263 270.486 258.244 270.483 258.227 270.477ZM256.862 268.19H256.778C256.542 268.19 256.527 268.312 256.519 268.342C256.458 268.724 257.373 269.676 258.044 270.088C257.978 269.448 257.711 268.845 257.282 268.365C257.173 268.271 257.036 268.215 256.893 268.205L256.862 268.19Z" fill="#407BFF"/>
<path d="M264.386 270.34H258.783L258.227 257.373H263.829L264.386 270.34Z" fill="#E4897B"/>
<path d="M298.011 270.34H292.409L289.596 257.373H295.191L298.011 270.34Z" fill="#E4897B"/>
<path d="M292.012 269.692H298.3C298.413 269.693 298.521 269.732 298.609 269.802C298.696 269.873 298.756 269.971 298.781 270.081L299.886 275.058C299.911 275.18 299.909 275.305 299.879 275.425C299.849 275.545 299.792 275.657 299.713 275.752C299.634 275.848 299.535 275.924 299.422 275.975C299.309 276.027 299.187 276.052 299.063 276.049C296.867 276.011 295.8 275.882 293.033 275.882C291.333 275.882 287.826 276.065 285.471 276.065C283.116 276.065 282.818 273.778 283.779 273.526C288.093 272.581 289.717 271.277 291.097 270.042C291.347 269.816 291.674 269.691 292.012 269.692Z" fill="#263238"/>
<path d="M258.821 269.692H264.919C265.032 269.693 265.14 269.732 265.228 269.802C265.315 269.873 265.376 269.971 265.4 270.081L266.505 275.058C266.531 275.178 266.53 275.303 266.502 275.423C266.473 275.542 266.418 275.654 266.341 275.749C266.263 275.844 266.165 275.921 266.053 275.973C265.942 276.025 265.82 276.051 265.697 276.049C263.494 276.011 260.308 275.882 257.533 275.882C254.293 275.882 251.488 276.065 247.684 276.065C245.397 276.065 244.749 273.778 245.71 273.526C250.093 272.566 253.668 272.467 257.457 270.134C257.86 269.86 258.333 269.706 258.821 269.692Z" fill="#263238"/>
<path d="M256.13 87.7704C251.447 87.4075 246.788 86.7891 242.173 85.918C239.886 85.4759 237.553 84.9804 235.236 84.3553C232.86 83.7474 230.528 82.9834 228.253 82.0684C227.666 81.8245 227.072 81.5577 226.485 81.3061C225.824 80.9806 225.187 80.6087 224.579 80.1932C223.481 79.469 222.536 78.7143 221.598 77.9673C219.731 76.4427 218 74.9181 216.262 73.3554C212.855 70.1995 209.623 66.9369 206.505 63.5066L209.31 60.3735L220.371 68.3243C222.193 69.6354 224.038 70.9237 225.852 72.1357C226.751 72.7379 227.674 73.302 228.52 73.7823C228.874 73.9841 229.24 74.1623 229.618 74.3159C230.067 74.4912 230.525 74.6665 231.005 74.8342C235.125 76.1028 239.338 77.0459 243.606 77.6547C247.958 78.3408 252.456 78.9049 256.801 79.3623L256.13 87.7704Z" fill="#E4897B"/>
<path d="M281.454 79.2023C286.706 80.4067 292.012 95.7517 292.012 95.7517L281.21 103.504C281.21 103.504 278.161 96.3539 275.218 90.1031C272.139 83.555 276.087 77.975 281.454 79.2023Z" fill="#407BFF"/>
<path opacity="0.4" d="M281.454 79.2023C286.706 80.4067 292.012 95.7517 292.012 95.7517L281.21 103.504C281.21 103.504 278.161 96.3539 275.218 90.1031C272.139 83.555 276.087 77.975 281.454 79.2023Z" fill="black"/>
<path d="M278.427 87.5875L276.285 92.3823C278.503 97.1695 280.531 101.911 281.072 103.176C280.996 97.5125 279.921 90.4842 278.427 87.5875Z" fill="#407BFF"/>
<path opacity="0.6" d="M278.427 87.5875L276.285 92.3823C278.503 97.1695 280.531 101.911 281.072 103.176C280.996 97.5125 279.921 90.4842 278.427 87.5875Z" fill="black"/>
<path d="M250.086 79.4919C250.086 79.4919 244.124 86.2229 249.75 127.898H279.701C279.914 123.324 277.025 100.867 281.454 79.2022C278.143 78.5647 274.795 78.142 271.43 77.9368C267.19 77.6927 262.939 77.6927 258.7 77.9368C255.792 78.2297 252.912 78.7497 250.086 79.4919Z" fill="#407BFF"/>
<path opacity="0.4" d="M250.086 79.4919C250.086 79.4919 244.124 86.2229 249.75 127.898H279.701C279.914 123.324 277.025 100.867 281.454 79.2022C278.143 78.5647 274.795 78.142 271.43 77.9368C267.19 77.6927 262.939 77.6927 258.7 77.9368C255.792 78.2297 252.912 78.7497 250.086 79.4919Z" fill="black"/>
<path d="M247.868 87.5875C247.67 89.1654 247.517 91.033 247.418 93.2361C250.376 92.3483 253.186 91.028 255.757 89.3179L247.868 87.5875Z" fill="#407BFF"/>
<path opacity="0.6" d="M247.868 87.5875C247.67 89.1654 247.517 91.033 247.418 93.2361C250.376 92.3483 253.186 91.028 255.757 89.3179L247.868 87.5875Z" fill="black"/>
<path d="M260.704 88.4261C256.695 91.9783 241.388 91.6201 241.388 91.6201L240.885 76.8011C246.054 77.5374 251.268 77.9143 256.489 77.9293C265.019 77.7539 265.08 84.5079 260.704 88.4261Z" fill="#407BFF"/>
<path opacity="0.4" d="M260.704 88.4261C256.695 91.9783 241.388 91.6201 241.388 91.6201L240.885 76.8011C246.054 77.5374 251.268 77.9143 256.489 77.9293C265.019 77.7539 265.08 84.5079 260.704 88.4261Z" fill="black"/>
<path d="M209.455 60.404L205.644 55.9141L201.535 60.4879C201.535 60.4879 204.066 64.7415 208.083 64.0707L209.455 60.404Z" fill="#E4897B"/>
<path d="M200.186 50.6771L198.707 56.5392L201.505 60.4573L205.613 55.9141L200.186 50.6771Z" fill="#E4897B"/>
<path d="M258.227 257.381L258.516 264.058H264.119L263.829 257.381H258.227Z" fill="#CE6F64"/>
<path d="M295.199 257.381H289.596L291.044 264.058H296.647L295.199 257.381Z" fill="#CE6F64"/>
<path d="M261.596 51.8359C256.572 49.549 254.987 39.3876 269.44 41.926C269.44 41.926 267.26 44.3349 271.681 45.8595C276.102 47.3841 272.405 56.7984 261.596 51.8359Z" fill="#263238"/>
<path d="M272.512 59.4589C271.071 64.795 270.507 68.0423 267.176 70.2759C262.191 73.6299 255.993 69.7804 255.795 64.086C255.62 58.971 258.006 51.0508 263.761 49.9684C265.031 49.7193 266.344 49.7998 267.575 50.2023C268.805 50.6048 269.912 51.3158 270.789 52.2675C271.667 53.2192 272.286 54.3799 272.588 55.6388C272.889 56.8977 272.863 58.2129 272.512 59.4589Z" fill="#E4897B"/>
<path d="M269.243 44.5941C272.665 46.4999 277.3 47.6433 276.866 50.3571C276.294 53.6731 279.663 51.5996 278.878 56.5317C278.367 59.7562 272.421 69.5288 268.206 69.0561C261.909 68.2938 262.71 58.7194 262.687 53.6731C262.672 50.6925 262.534 40.836 269.243 44.5941Z" fill="#263238"/>
<path d="M261.931 48.8707C260.407 49.2289 258.387 58.0182 264.294 58.8262C271.086 59.7486 261.931 48.8707 261.931 48.8707Z" fill="#263238"/>
<path d="M262.085 51.9884C260.217 52.1561 255.986 49.9074 256.505 46.5228C256.505 46.4999 259.18 50.4791 262.085 51.9884Z" fill="#263238"/>
<path d="M264.859 59.5275C264.286 60.7844 263.313 61.8163 262.092 62.4624C260.483 63.3009 259.576 62.0812 259.942 60.4652C260.27 59.0168 261.505 56.829 263.159 56.6537C264.813 56.4784 265.522 58.0029 264.859 59.5275Z" fill="#E4897B"/>
<path d="M273.244 53.3604C274.383 52.8661 275.382 52.0969 276.151 51.1217C276.92 50.1466 277.435 48.9959 277.65 47.7728C277.65 47.7728 280.166 54.7631 273.244 53.3604Z" fill="#263238"/>
<path d="M279.602 53.2462C279.071 52.8899 278.461 52.6707 277.825 52.6082C277.189 52.5456 276.548 52.6417 275.958 52.8879C275.958 52.8879 278.306 49.8463 279.602 53.2462Z" fill="#263238"/>
<path d="M260.377 127.897C260.377 127.897 266.734 170.693 270.218 186.724C274.03 204.256 288.437 262.77 288.437 262.77H298.69C298.69 262.77 289.199 205.697 287.019 188.286C284.656 169.42 279.701 127.867 279.701 127.867L260.377 127.897Z" fill="#407BFF"/>
<path opacity="0.5" d="M260.377 127.897C260.377 127.897 266.734 170.693 270.218 186.724C274.03 204.256 288.437 262.77 288.437 262.77H298.69C298.69 262.77 289.199 205.697 287.019 188.286C284.656 169.42 279.701 127.867 279.701 127.867L260.377 127.897Z" fill="white"/>
<path d="M286.797 258.989C286.752 258.989 287.857 262.93 287.857 262.93H299.398L299.185 259.416L286.797 258.989Z" fill="#407BFF"/>
<path opacity="0.1" d="M286.797 258.989C286.752 258.989 287.857 262.93 287.857 262.93H299.398L299.185 259.416L286.797 258.989Z" fill="black"/>
<path d="M264.394 143.143C271.743 144.584 270.965 171.989 270.081 186.083C267.962 176.12 264.859 156.949 262.74 143.342C263.253 143.089 263.837 143.019 264.394 143.143Z" fill="#407BFF"/>
<path opacity="0.4" d="M264.394 143.143C271.743 144.584 270.965 171.989 270.081 186.083C267.962 176.12 264.859 156.949 262.74 143.342C263.253 143.089 263.837 143.019 264.394 143.143Z" fill="white"/>
<path d="M249.75 127.898C249.75 127.898 248.988 169.763 249.59 186.846C250.223 204.607 256.451 262.77 256.451 262.77H265.934C265.934 262.77 266.284 205.644 266.696 188.203C267.161 169.183 269.455 127.898 269.455 127.898H249.75Z" fill="#407BFF"/>
<path opacity="0.5" d="M249.75 127.898C249.75 127.898 248.988 169.763 249.59 186.846C250.223 204.607 256.451 262.77 256.451 262.77H265.934C265.934 262.77 266.284 205.644 266.696 188.203C267.161 169.183 269.455 127.898 269.455 127.898H249.75Z" fill="white"/>
<path d="M258.417 255.955C258.394 255.955 258.372 255.947 258.355 255.931C258.338 255.916 258.328 255.894 258.326 255.871C256.649 239.772 252.708 200.819 252.227 186.846C251.717 172.583 252.182 140.582 252.334 131.114C252.334 131.09 252.344 131.067 252.361 131.05C252.378 131.033 252.401 131.023 252.426 131.023C252.451 131.023 252.475 131.032 252.493 131.049C252.511 131.066 252.523 131.09 252.525 131.114C252.372 140.582 251.907 172.583 252.418 186.838C252.913 200.811 256.854 239.749 258.516 255.848C258.517 255.874 258.507 255.899 258.491 255.919C258.474 255.939 258.45 255.952 258.425 255.955H258.417Z" fill="#407BFF"/>
<path opacity="0.4" d="M258.417 255.955C258.394 255.955 258.372 255.947 258.355 255.931C258.338 255.916 258.328 255.894 258.326 255.871C256.649 239.772 252.708 200.819 252.227 186.846C251.717 172.583 252.182 140.582 252.334 131.114C252.334 131.09 252.344 131.067 252.361 131.05C252.378 131.033 252.401 131.023 252.426 131.023C252.451 131.023 252.475 131.032 252.493 131.049C252.511 131.066 252.523 131.09 252.525 131.114C252.372 140.582 251.907 172.583 252.418 186.838C252.913 200.811 256.854 239.749 258.516 255.848C258.517 255.874 258.507 255.899 258.491 255.919C258.474 255.939 258.45 255.952 258.425 255.955H258.417Z" fill="white"/>
<path d="M254.606 258.989C254.568 258.989 255.148 262.93 255.148 262.93H266.681L266.994 259.416L254.606 258.989Z" fill="#407BFF"/>
<path opacity="0.1" d="M254.606 258.989C254.568 258.989 255.148 262.93 255.148 262.93H266.681L266.994 259.416L254.606 258.989Z" fill="black"/>
</svg>
